<svg version="1.1" xmlns="http://www.w3.org/2000/svg" x="0px" y="0px"
	 viewBox="0 0 64 64" style="enable-background:new 0 0 64 64;" xml:space="preserve">
<style type="text/css">
	.st0{fill:#929394;}
</style>
<path class="st0" d="M61,9H17c-1.7,0-3,1.3-3,3v17h2V12c0-0.6,0.4-1,1-1h44c0.6,0,1,0.4,1,1v24H37v2h25v4c0,0.6-0.4,1-1,1H37v2h4.3
	c0.2,0.9,0.7,2.6,1.7,4H37v2h7.6c0.6,0,1.1-0.4,1.3-1c0.2-0.6,0-1.2-0.5-1.5c-1.1-0.8-1.8-2.4-2-3.6H61c1.7,0,3-1.3,3-3V12
	C64,10.3,62.7,9,61,9z"/>
<g>
	<path class="st0" d="M32.9,30H3.1C1.4,30,0,31.4,0,33.1v18.8C0,53.6,1.4,55,3.1,55h29.9c1.7,0,3.1-1.4,3.1-3.1V33.1
		C36,31.4,34.6,30,32.9,30z M3.1,53C2.5,53,2,52.5,2,51.9V33.1C2,32.5,2.5,32,3.1,32H6v21H3.1z M8,53V32h20v21H8z M34,51.9
		c0,0.6-0.5,1.1-1.1,1.1H30V32h2.9c0.6,0,1.1,0.5,1.1,1.1V51.9z"/>
</g>
</svg>
