<svg version="1.1" xmlns="http://www.w3.org/2000/svg" x="0px" y="0px"
	 viewBox="0 0 64 64" style="enable-background:new 0 0 64 64;" xml:space="preserve">
<style type="text/css">
	.st0{fill:#929394;}

</style>
<g>
	<path class="st0" d="M61,8H20c-1.7,0-3,1.3-3,3v15h2V11c0-0.6,0.4-1,1-1h41c0.6,0,1,0.4,1,1v22H41v2h21v4c0,0.6-0.4,1-1,1H41v2h3.3
		c0.2,0.9,0.7,2.6,1.7,4H41v2h6.6c0.6,0,1.1-0.4,1.3-1c0.2-0.6,0-1.2-0.5-1.5c-1.1-0.8-1.8-2.4-2-3.6H61c1.7,0,3-1.3,3-3v-5v-2V11
		C64,9.3,62.7,8,61,8z"/>
	<g>
		<circle class="st1" cx="42" cy="37" r="1"/>
	</g>
</g>
<g>
	<path class="st0" d="M37,27H8c-1.7,0-3,1.3-3,3v2h2v-2c0-0.6,0.4-1,1-1h3v3h2v-3h19v20H14v2h23c1.7,0,3-1.3,3-3V30
		C40,28.3,38.7,27,37,27z M38,48c0,0.6-0.4,1-1,1h-3V29h3c0.6,0,1,0.4,1,1V48z"/>
	<circle class="st0" cx="36" cy="39" r="1"/>
</g>
<g>
	<path class="st0" d="M10.5,33h-8C1.1,33,0,34.1,0,35.5v19C0,55.9,1.1,57,2.5,57h8c1.4,0,2.5-1.1,2.5-2.5v-19
		C13,34.1,11.9,33,10.5,33z M11,54.5c0,0.3-0.2,0.5-0.5,0.5h-8C2.2,55,2,54.8,2,54.5V53h6.5H11V54.5z M11,51H2V39h9V51z M11,37H2
		v-1.5C2,35.2,2.2,35,2.5,35h8c0.3,0,0.5,0.2,0.5,0.5V37z"/>
	<g>
		<rect x="6.4" y="46" class="st1" width="0.9" height="1"/>
	</g>
</g>
</svg>
