<svg xmlns="http://www.w3.org/2000/svg" viewBox="0 0 64 64" enable-background="new 0 0 64 64"><style type="text/css">.st0{fill:#929394;} .st1{display:none;fill:#929394;}</style><path class="st0" d="M61 8H20c-1.7 0-3 1.3-3 3v15h2V11c0-.6.4-1 1-1h41c.6 0 1 .4 1 1v22H41v2h21v4c0 .6-.4 1-1 1H41v2h3.3c.2.9.7 2.6 1.7 4h-5v2h6.6c.6 0 1.1-.4 1.3-1 .2-.6 0-1.2-.5-1.5-1.1-.8-1.8-2.4-2-3.6H61c1.7 0 3-1.3 3-3V11c0-1.7-1.3-3-3-3z"/><circle class="st1" cx="42" cy="37" r="1"/><path class="st0" d="M37 27H8c-1.7 0-3 1.3-3 3v2h2v-2c0-.6.4-1 1-1h3v3h2v-3h19v20H14v2h23c1.7 0 3-1.3 3-3V30c0-1.7-1.3-3-3-3zm1 21c0 .6-.4 1-1 1h-3V29h3c.6 0 1 .4 1 1v18z"/><circle class="st0" cx="36" cy="39" r="1"/><path class="st0" d="M10.5 33h-8C1.1 33 0 34.1 0 35.5v19C0 55.9 1.1 57 2.5 57h8c1.4 0 2.5-1.1 2.5-2.5v-19c0-1.4-1.1-2.5-2.5-2.5zm.5 21.5c0 .3-.2.5-.5.5h-8c-.3 0-.5-.2-.5-.5V53h9v1.5zm0-3.5H2V39h9v12zm0-14H2v-1.5c0-.3.2-.5.5-.5h8c.3 0 .5.2.5.5V37z"/><path class="st1" d="M6.4 46h.9v1h-.9z"/></svg>