<svg version="1.1" xmlns="http://www.w3.org/2000/svg" x="0px" y="0px"
	 viewBox="0 0 64 64" style="enable-background:new 0 0 64 64;" xml:space="preserve">
<style type="text/css">
	.st0{fill:#929394;}
</style>
	<path class="st0" d="M61,5H3C1.3,5,0,6.3,0,8v40c0,1.7,1.3,3,3,3h23.7c-0.4,1.4-1.4,4.1-3.1,5.4c-0.5,0.4-0.7,1-0.5,1.6
		c0.2,0.6,0.8,1,1.4,1h15c0.7,0,1.2-0.4,1.4-1.1c0.2-0.6,0-1.2-0.6-1.6c-1.9-1.3-2.7-4-3-5.4H61c1.7,0,3-1.3,3-3V8
		C64,6.3,62.7,5,61,5z M3,7h58c0.6,0,1,0.4,1,1v31H2V8C2,7.4,2.4,7,3,7z M38.1,57H25.9c1.8-2,2.6-4.9,2.9-6h6.6
		C35.6,52.2,36.3,55,38.1,57z M61,49H3c-0.6,0-1-0.4-1-1v-7h60v7C62,48.6,61.6,49,61,49z"/>
</svg>
