<svg xmlns="http://www.w3.org/2000/svg" viewBox="0 0 64 64" enable-background="new 0 0 64 64"><style type="text/css">.st0{fill:#929394;}</style><path class="st0" d="M61 5H3C1.3 5 0 6.3 0 8v40c0 1.7 1.3 3 3 3h23.7c-.4 1.4-1.4 4.1-3.1 5.4-.5.4-.7 1-.5 1.6.2.6.8 1 1.4 1h15c.7 0 1.2-.4 1.4-1.1.2-.6 0-1.2-.6-1.6-1.9-1.3-2.7-4-3-5.4H61c1.7 0 3-1.3 3-3V8c0-1.7-1.3-3-3-3zM3 7h58c.6 0 1 .4 1 1v31H2V8c0-.6.4-1 1-1zm35.1 50H25.9c1.8-2 2.6-4.9 2.9-6h6.6c.2 1.2.9 4 2.7 6zM61 49H3c-.6 0-1-.4-1-1v-7h60v7c0 .6-.4 1-1 1z"/></svg>