<svg xmlns="http://www.w3.org/2000/svg" viewBox="0 0 64 64" enable-background="new 0 0 64 64"><style type="text/css">.st0{fill:#929394;}</style><path class="st0" d="M61 7H13c-1.7 0-3 1.3-3 3v10h2V10c0-.6.4-1 1-1h48c.6 0 1 .4 1 1v26H19v2h43v5c0 .6-.4 1-1 1H19v2h13.2c-.4 1.4-1.3 3.5-2.6 4.5-.5.3-.7 1-.5 1.5.2.6.7 1 1.4 1h13.2c.6 0 1.2-.4 1.4-1 .2-.6 0-1.2-.5-1.5-1.5-1-2.2-3.2-2.5-4.5H61c1.7 0 3-1.3 3-3V10c0-1.7-1.3-3-3-3zM42.1 51H31.9c1.4-1.7 2.1-4 2.4-5h5.6c.2 1.1.7 3.3 2.2 5z"/><circle class="st0" cx="37" cy="41" r="1"/><path class="st0" d="M15 21H3c-1.7 0-3 1.3-3 3v30c0 1.7 1.3 3 3 3h12c1.7 0 3-1.3 3-3V24c0-1.7-1.3-3-3-3zm1 33c0 .6-.4 1-1 1H3c-.6 0-1-.4-1-1v-3h14v3zm0-5H2V29h14v20zm0-22H2v-3c0-.6.4-1 1-1h12c.6 0 1 .4 1 1v3z"/><circle class="st0" cx="9" cy="53" r="1"/></svg>