<svg xmlns="http://www.w3.org/2000/svg" viewBox="0 0 64 64" enable-background="new 0 0 64 64"><style type="text/css">.st0{fill:#929394;}</style><path class="st0" d="M61 9H17c-1.7 0-3 1.3-3 3v17h2V12c0-.6.4-1 1-1h44c.6 0 1 .4 1 1v24H37v2h25v4c0 .6-.4 1-1 1H37v2h4.3c.2.9.7 2.6 1.7 4h-6v2h7.6c.6 0 1.1-.4 1.3-1 .2-.6 0-1.2-.5-1.5-1.1-.8-1.8-2.4-2-3.6H61c1.7 0 3-1.3 3-3V12c0-1.7-1.3-3-3-3zM32.9 30H3.1C1.4 30 0 31.4 0 33.1v18.8C0 53.6 1.4 55 3.1 55H33c1.7 0 3.1-1.4 3.1-3.1V33.1c-.1-1.7-1.5-3.1-3.2-3.1zM3.1 53c-.6 0-1.1-.5-1.1-1.1V33.1c0-.6.5-1.1 1.1-1.1H6v21H3.1zM8 53V32h20v21H8zm26-1.1c0 .6-.5 1.1-1.1 1.1H30V32h2.9c.6 0 1.1.5 1.1 1.1v18.8z"/><circle class="st0" cx="32" cy="42" r="1"/></svg>