<svg xmlns="http://www.w3.org/2000/svg" viewBox="0 0 64 64" enable-background="new 0 0 64 64"><style type="text/css">.st0{fill:#929394;}</style><path class="st0" d="M60.5 10h-47c-1.9 0-3.5 1.6-3.5 3.5V15h2v-1.5c0-.8.7-1.5 1.5-1.5H18v3h2v-3h34v32H21v2h39.5c1.9 0 3.5-1.6 3.5-3.5v-29c0-1.9-1.6-3.5-3.5-3.5zM62 42.5c0 .8-.7 1.5-1.5 1.5H56V12h4.5c.8 0 1.5.7 1.5 1.5v29z"/><circle class="st0" cx="59" cy="28" r="1"/><path class="st0" d="M17 16H3c-1.7 0-3 1.3-3 3v32c0 1.7 1.3 3 3 3h14c1.7 0 3-1.3 3-3V19c0-1.7-1.3-3-3-3zm1 35c0 .6-.4 1-1 1H3c-.6 0-1-.4-1-1v-3h16v3zm0-5H2V24h16v22zm0-24H2v-3c0-.6.4-1 1-1h14c.6 0 1 .4 1 1v3z"/><circle class="st0" cx="10" cy="50" r="1"/></svg>