<svg version="1.1" xmlns="http://www.w3.org/2000/svg" x="0px" y="0px"
	 viewBox="0 0 64 64" style="enable-background:new 0 0 64 64;" xml:space="preserve">
<style type="text/css">
	.st0{fill:#929394;}
</style>
<g>
	<path class="st0" d="M60,11H4c-2.2,0-4,1.8-4,4v34c0,2.2,1.8,4,4,4h56c2.2,0,4-1.8,4-4V15C64,12.8,62.2,11,60,11z M4,51
		c-1.1,0-2-0.9-2-2V15c0-1.1,0.9-2,2-2h6v38H4z M12,51V13h40v38H12z M62,49c0,1.1-0.9,2-2,2h-6V13h6c1.1,0,2,0.9,2,2V49z"/>
	<circle class="st0" cx="58" cy="32" r="2"/>
</g>
</svg>
