<svg version="1.1" xmlns="http://www.w3.org/2000/svg" x="0px" y="0px"
	 viewBox="0 0 64 64" style="enable-background:new 0 0 64 64;" xml:space="preserve">
<style type="text/css">
	.st0{fill:#929394;}
</style>
<g>
	<path class="st0" d="M44,0H20c-2.2,0-4,1.8-4,4v56c0,2.2,1.8,4,4,4h24c2.2,0,4-1.8,4-4V4C48,1.8,46.2,0,44,0z M46,60
		c0,1.1-0.9,2-2,2H20c-1.1,0-2-0.9-2-2v-6h28V60z M46,52H18V12h28V52z M46,10H18V4c0-1.1,0.9-2,2-2h24c1.1,0,2,0.9,2,2V10z"/>
	<circle class="st0" cx="32" cy="58" r="2"/>
</g>
</svg>
